<mxfile host="app.diagrams.net" modified="2020-12-18T16:30:32.831Z" agent="5.0 (Windows NT 10.0; Win64; x64) AppleWebKit/537.36 (KHTML, like Gecko) Chrome/87.0.4280.88 Safari/537.36" etag="eC0TQNV1K9FmEMZfsCYV" version="14.0.5" type="github">
  <diagram id="N5GbgDfe08FwhtNBoZ4x" name="Page-1">
    <mxGraphModel dx="868" dy="482" grid="1" gridSize="10" guides="1" tooltips="1" connect="1" arrows="1" fold="1" page="1" pageScale="1" pageWidth="1169" pageHeight="827" math="0" shadow="0">
      <root>
        <mxCell id="0" />
        <mxCell id="1" parent="0" />
        <mxCell id="IONX78HS26AkxI54Z5os-8" value="Service" style="rounded=0;whiteSpace=wrap;html=1;fontStyle=2;fillColor=#f8cecc;strokeColor=#b85450;" parent="1" vertex="1">
          <mxGeometry x="240" y="100" width="120" height="40" as="geometry" />
        </mxCell>
        <mxCell id="IONX78HS26AkxI54Z5os-43" style="edgeStyle=orthogonalEdgeStyle;rounded=0;orthogonalLoop=1;jettySize=auto;html=1;entryX=0.5;entryY=0;entryDx=0;entryDy=0;endArrow=open;endFill=0;" parent="1" source="IONX78HS26AkxI54Z5os-9" target="IONX78HS26AkxI54Z5os-18" edge="1">
          <mxGeometry relative="1" as="geometry">
            <Array as="points">
              <mxPoint x="300" y="220" />
              <mxPoint x="300" y="220" />
            </Array>
          </mxGeometry>
        </mxCell>
        <mxCell id="Vv6Tuv0iEYaA01Lypk54-9" value="exposes" style="edgeLabel;html=1;align=right;verticalAlign=middle;resizable=0;points=[];labelPosition=left;verticalLabelPosition=middle;spacingLeft=0;spacingRight=4;fontStyle=2" parent="IONX78HS26AkxI54Z5os-43" vertex="1" connectable="0">
          <mxGeometry x="-0.279" y="-2" relative="1" as="geometry">
            <mxPoint x="2" y="8.4" as="offset" />
          </mxGeometry>
        </mxCell>
        <mxCell id="IONX78HS26AkxI54Z5os-9" value="" style="rounded=0;whiteSpace=wrap;html=1;fontStyle=2;fillColor=#f8cecc;strokeColor=#b85450;" parent="1" vertex="1">
          <mxGeometry x="240" y="140" width="120" height="40" as="geometry" />
        </mxCell>
        <mxCell id="IONX78HS26AkxI54Z5os-10" value="Virtual Entity" style="rounded=0;whiteSpace=wrap;html=1;fontStyle=2;fillColor=#d5e8d4;strokeColor=#82b366;" parent="1" vertex="1">
          <mxGeometry x="520" y="40" width="120" height="40" as="geometry" />
        </mxCell>
        <mxCell id="IONX78HS26AkxI54Z5os-31" style="edgeStyle=orthogonalEdgeStyle;rounded=0;orthogonalLoop=1;jettySize=auto;html=1;exitX=1;exitY=0;exitDx=0;exitDy=0;entryX=0;entryY=1;entryDx=0;entryDy=0;endArrow=open;endFill=0;" parent="1" source="IONX78HS26AkxI54Z5os-11" target="IONX78HS26AkxI54Z5os-14" edge="1">
          <mxGeometry relative="1" as="geometry">
            <Array as="points">
              <mxPoint x="760" y="80" />
              <mxPoint x="760" y="80" />
            </Array>
          </mxGeometry>
        </mxCell>
        <mxCell id="Vv6Tuv0iEYaA01Lypk54-3" value="relates to" style="edgeLabel;html=1;align=center;verticalAlign=bottom;resizable=0;points=[];labelPosition=center;verticalLabelPosition=top;" parent="IONX78HS26AkxI54Z5os-31" vertex="1" connectable="0">
          <mxGeometry x="-0.154" y="3" relative="1" as="geometry">
            <mxPoint x="12.41" y="3" as="offset" />
          </mxGeometry>
        </mxCell>
        <mxCell id="Vv6Tuv0iEYaA01Lypk54-12" value="relates to" style="edgeLabel;html=1;align=center;verticalAlign=bottom;resizable=0;points=[];labelPosition=center;verticalLabelPosition=top;fontStyle=2" parent="IONX78HS26AkxI54Z5os-31" vertex="1" connectable="0">
          <mxGeometry x="-0.154" y="3" relative="1" as="geometry">
            <mxPoint x="12" y="3" as="offset" />
          </mxGeometry>
        </mxCell>
        <mxCell id="IONX78HS26AkxI54Z5os-33" style="edgeStyle=orthogonalEdgeStyle;rounded=0;orthogonalLoop=1;jettySize=auto;html=1;exitX=0;exitY=0;exitDx=0;exitDy=0;entryX=1;entryY=0.75;entryDx=0;entryDy=0;endArrow=open;endFill=0;" parent="1" source="IONX78HS26AkxI54Z5os-11" target="IONX78HS26AkxI54Z5os-8" edge="1">
          <mxGeometry relative="1" as="geometry">
            <Array as="points">
              <mxPoint x="380" y="80" />
              <mxPoint x="380" y="130" />
            </Array>
          </mxGeometry>
        </mxCell>
        <mxCell id="Vv6Tuv0iEYaA01Lypk54-1" value="associated with" style="edgeLabel;html=1;align=center;verticalAlign=bottom;resizable=0;points=[];labelPosition=center;verticalLabelPosition=top;fontStyle=2" parent="IONX78HS26AkxI54Z5os-33" vertex="1" connectable="0">
          <mxGeometry x="-0.1716" y="2" relative="1" as="geometry">
            <mxPoint x="6.9" y="-2" as="offset" />
          </mxGeometry>
        </mxCell>
        <mxCell id="IONX78HS26AkxI54Z5os-11" value="Control unit" style="rounded=0;whiteSpace=wrap;html=1;fontStyle=0;fillColor=#d5e8d4;strokeColor=#82b366;" parent="1" vertex="1">
          <mxGeometry x="520" y="80" width="120" height="40" as="geometry" />
        </mxCell>
        <mxCell id="IONX78HS26AkxI54Z5os-34" style="edgeStyle=orthogonalEdgeStyle;rounded=0;orthogonalLoop=1;jettySize=auto;html=1;exitX=0;exitY=1;exitDx=0;exitDy=0;entryX=1;entryY=0.25;entryDx=0;entryDy=0;endArrow=open;endFill=0;" parent="1" source="IONX78HS26AkxI54Z5os-12" target="IONX78HS26AkxI54Z5os-9" edge="1">
          <mxGeometry relative="1" as="geometry">
            <Array as="points">
              <mxPoint x="380" y="200" />
              <mxPoint x="380" y="150" />
            </Array>
          </mxGeometry>
        </mxCell>
        <mxCell id="Vv6Tuv0iEYaA01Lypk54-2" value="associated with" style="edgeLabel;html=1;align=center;verticalAlign=top;resizable=0;points=[];labelPosition=center;verticalLabelPosition=bottom;fontStyle=2" parent="IONX78HS26AkxI54Z5os-34" vertex="1" connectable="0">
          <mxGeometry x="-0.1081" y="1" relative="1" as="geometry">
            <mxPoint x="13.79" y="-1" as="offset" />
          </mxGeometry>
        </mxCell>
        <mxCell id="IONX78HS26AkxI54Z5os-12" value="Virtual Entity" style="rounded=0;whiteSpace=wrap;html=1;fontStyle=2;fillColor=#d5e8d4;strokeColor=#82b366;" parent="1" vertex="1">
          <mxGeometry x="520" y="160" width="120" height="40" as="geometry" />
        </mxCell>
        <mxCell id="IONX78HS26AkxI54Z5os-32" style="edgeStyle=orthogonalEdgeStyle;rounded=0;orthogonalLoop=1;jettySize=auto;html=1;exitX=1;exitY=0;exitDx=0;exitDy=0;entryX=0;entryY=0;entryDx=0;entryDy=0;endArrow=open;endFill=0;" parent="1" source="IONX78HS26AkxI54Z5os-13" target="IONX78HS26AkxI54Z5os-17" edge="1">
          <mxGeometry relative="1" as="geometry">
            <Array as="points">
              <mxPoint x="720" y="200" />
              <mxPoint x="720" y="200" />
            </Array>
          </mxGeometry>
        </mxCell>
        <mxCell id="Vv6Tuv0iEYaA01Lypk54-4" value="relates to" style="edgeLabel;html=1;align=center;verticalAlign=top;resizable=0;points=[];labelPosition=center;verticalLabelPosition=bottom;fontStyle=2" parent="IONX78HS26AkxI54Z5os-32" vertex="1" connectable="0">
          <mxGeometry x="-0.1023" y="1" relative="1" as="geometry">
            <mxPoint x="8.28" y="1" as="offset" />
          </mxGeometry>
        </mxCell>
        <mxCell id="IONX78HS26AkxI54Z5os-51" style="edgeStyle=orthogonalEdgeStyle;rounded=0;orthogonalLoop=1;jettySize=auto;html=1;exitX=0.5;exitY=1;exitDx=0;exitDy=0;entryX=1;entryY=0;entryDx=0;entryDy=0;endArrow=open;endFill=0;labelPosition=center;verticalLabelPosition=top;align=center;verticalAlign=bottom;" parent="1" source="IONX78HS26AkxI54Z5os-13" target="IONX78HS26AkxI54Z5os-19" edge="1">
          <mxGeometry relative="1" as="geometry">
            <Array as="points">
              <mxPoint x="580" y="280" />
            </Array>
          </mxGeometry>
        </mxCell>
        <mxCell id="Vv6Tuv0iEYaA01Lypk54-7" value="associated with" style="edgeLabel;html=1;align=center;verticalAlign=bottom;resizable=0;points=[];labelPosition=center;verticalLabelPosition=top;fontStyle=2" parent="IONX78HS26AkxI54Z5os-51" vertex="1" connectable="0">
          <mxGeometry x="0.0613" y="-1" relative="1" as="geometry">
            <mxPoint y="1" as="offset" />
          </mxGeometry>
        </mxCell>
        <mxCell id="IONX78HS26AkxI54Z5os-13" value="Control unit" style="rounded=0;whiteSpace=wrap;html=1;fontStyle=0;fillColor=#d5e8d4;strokeColor=#82b366;" parent="1" vertex="1">
          <mxGeometry x="520" y="200" width="120" height="40" as="geometry" />
        </mxCell>
        <mxCell id="IONX78HS26AkxI54Z5os-14" value="Physical Entity" style="rounded=0;whiteSpace=wrap;html=1;fontStyle=2;fillColor=#ffe6cc;strokeColor=#d79b00;" parent="1" vertex="1">
          <mxGeometry x="800" y="40" width="120" height="40" as="geometry" />
        </mxCell>
        <mxCell id="IONX78HS26AkxI54Z5os-15" value="Ballot Unit" style="rounded=0;whiteSpace=wrap;html=1;fontStyle=0;fillColor=#ffe6cc;strokeColor=#d79b00;" parent="1" vertex="1">
          <mxGeometry x="800" y="80" width="120" height="40" as="geometry" />
        </mxCell>
        <mxCell id="IONX78HS26AkxI54Z5os-16" value="Physical Entity" style="rounded=0;whiteSpace=wrap;html=1;fontStyle=2;fillColor=#ffe6cc;strokeColor=#d79b00;" parent="1" vertex="1">
          <mxGeometry x="800" y="160" width="120" height="40" as="geometry" />
        </mxCell>
        <mxCell id="IONX78HS26AkxI54Z5os-17" value="Ballot Unit" style="rounded=0;whiteSpace=wrap;html=1;fontStyle=0;fillColor=#ffe6cc;strokeColor=#d79b00;" parent="1" vertex="1">
          <mxGeometry x="800" y="200" width="120" height="40" as="geometry" />
        </mxCell>
        <mxCell id="IONX78HS26AkxI54Z5os-18" value="Resource" style="rounded=0;whiteSpace=wrap;html=1;fontStyle=2;fillColor=#fff2cc;strokeColor=#d6b656;" parent="1" vertex="1">
          <mxGeometry x="240" y="240" width="120" height="40" as="geometry" />
        </mxCell>
        <mxCell id="IONX78HS26AkxI54Z5os-19" value="" style="rounded=0;whiteSpace=wrap;html=1;fontStyle=2;fillColor=#fff2cc;strokeColor=#d6b656;" parent="1" vertex="1">
          <mxGeometry x="240" y="280" width="120" height="40" as="geometry" />
        </mxCell>
        <mxCell id="IONX78HS26AkxI54Z5os-44" style="edgeStyle=orthogonalEdgeStyle;rounded=0;orthogonalLoop=1;jettySize=auto;html=1;entryX=0.5;entryY=1;entryDx=0;entryDy=0;endArrow=block;endFill=1;" parent="1" source="IONX78HS26AkxI54Z5os-20" target="IONX78HS26AkxI54Z5os-19" edge="1">
          <mxGeometry relative="1" as="geometry" />
        </mxCell>
        <mxCell id="IONX78HS26AkxI54Z5os-20" value="Network&lt;br&gt;Resource" style="rounded=0;whiteSpace=wrap;html=1;fontStyle=2;fillColor=#fff2cc;strokeColor=#d6b656;" parent="1" vertex="1">
          <mxGeometry x="160" y="360" width="120" height="40" as="geometry" />
        </mxCell>
        <mxCell id="IONX78HS26AkxI54Z5os-21" value="" style="rounded=0;whiteSpace=wrap;html=1;fontStyle=2;fillColor=#fff2cc;strokeColor=#d6b656;" parent="1" vertex="1">
          <mxGeometry x="160" y="400" width="120" height="40" as="geometry" />
        </mxCell>
        <mxCell id="IONX78HS26AkxI54Z5os-45" style="edgeStyle=orthogonalEdgeStyle;rounded=0;orthogonalLoop=1;jettySize=auto;html=1;endArrow=block;endFill=1;" parent="1" source="IONX78HS26AkxI54Z5os-22" target="IONX78HS26AkxI54Z5os-19" edge="1">
          <mxGeometry relative="1" as="geometry" />
        </mxCell>
        <mxCell id="IONX78HS26AkxI54Z5os-46" style="edgeStyle=orthogonalEdgeStyle;rounded=0;orthogonalLoop=1;jettySize=auto;html=1;exitX=0.75;exitY=0;exitDx=0;exitDy=0;entryX=0;entryY=0;entryDx=0;entryDy=0;endArrow=diamond;endFill=1;" parent="1" source="IONX78HS26AkxI54Z5os-22" target="IONX78HS26AkxI54Z5os-29" edge="1">
          <mxGeometry relative="1" as="geometry">
            <Array as="points">
              <mxPoint x="410" y="320" />
            </Array>
          </mxGeometry>
        </mxCell>
        <mxCell id="Vv6Tuv0iEYaA01Lypk54-8" value="hosts" style="edgeLabel;html=1;align=center;verticalAlign=bottom;resizable=0;points=[];labelPosition=center;verticalLabelPosition=top;fontStyle=2" parent="IONX78HS26AkxI54Z5os-46" vertex="1" connectable="0">
          <mxGeometry x="0.06" y="2" relative="1" as="geometry">
            <mxPoint as="offset" />
          </mxGeometry>
        </mxCell>
        <mxCell id="IONX78HS26AkxI54Z5os-22" value="OnDevice&lt;br&gt;Resource" style="rounded=0;whiteSpace=wrap;html=1;fontStyle=2;fillColor=#fff2cc;strokeColor=#d6b656;" parent="1" vertex="1">
          <mxGeometry x="320" y="360" width="120" height="40" as="geometry" />
        </mxCell>
        <mxCell id="IONX78HS26AkxI54Z5os-23" value="" style="rounded=0;whiteSpace=wrap;html=1;fontStyle=2;fillColor=#fff2cc;strokeColor=#d6b656;" parent="1" vertex="1">
          <mxGeometry x="320" y="400" width="120" height="40" as="geometry" />
        </mxCell>
        <mxCell id="IONX78HS26AkxI54Z5os-48" style="edgeStyle=orthogonalEdgeStyle;rounded=0;orthogonalLoop=1;jettySize=auto;html=1;endArrow=open;endFill=0;exitX=0.5;exitY=0;exitDx=0;exitDy=0;" parent="1" source="IONX78HS26AkxI54Z5os-24" edge="1">
          <mxGeometry relative="1" as="geometry">
            <mxPoint x="720" y="360" as="targetPoint" />
          </mxGeometry>
        </mxCell>
        <mxCell id="Vv6Tuv0iEYaA01Lypk54-11" value="attached to" style="edgeLabel;html=1;align=center;verticalAlign=bottom;resizable=0;points=[];labelPosition=center;verticalLabelPosition=top;fontStyle=2" parent="IONX78HS26AkxI54Z5os-48" vertex="1" connectable="0">
          <mxGeometry x="-0.0843" y="1" relative="1" as="geometry">
            <mxPoint as="offset" />
          </mxGeometry>
        </mxCell>
        <mxCell id="IONX78HS26AkxI54Z5os-24" value="Actuator" style="rounded=0;whiteSpace=wrap;html=1;fontStyle=2;fillColor=#f5f5f5;strokeColor=#666666;fontColor=#333333;" parent="1" vertex="1">
          <mxGeometry x="800" y="400" width="120" height="40" as="geometry" />
        </mxCell>
        <mxCell id="IONX78HS26AkxI54Z5os-50" style="edgeStyle=orthogonalEdgeStyle;rounded=0;orthogonalLoop=1;jettySize=auto;html=1;exitX=0.5;exitY=1;exitDx=0;exitDy=0;entryX=1;entryY=0.5;entryDx=0;entryDy=0;endArrow=open;endFill=0;" parent="1" source="IONX78HS26AkxI54Z5os-25" target="IONX78HS26AkxI54Z5os-17" edge="1">
          <mxGeometry relative="1" as="geometry">
            <Array as="points">
              <mxPoint x="860" y="500" />
              <mxPoint x="980" y="500" />
              <mxPoint x="980" y="220" />
            </Array>
          </mxGeometry>
        </mxCell>
        <mxCell id="Vv6Tuv0iEYaA01Lypk54-6" value="acts on" style="edgeLabel;html=1;align=center;verticalAlign=bottom;resizable=0;points=[];labelPosition=center;verticalLabelPosition=top;fontStyle=2" parent="IONX78HS26AkxI54Z5os-50" vertex="1" connectable="0">
          <mxGeometry x="0.8309" relative="1" as="geometry">
            <mxPoint x="-10.69" as="offset" />
          </mxGeometry>
        </mxCell>
        <mxCell id="IONX78HS26AkxI54Z5os-25" value="Ballot Button" style="rounded=0;whiteSpace=wrap;html=1;fontStyle=2;fillColor=#f5f5f5;strokeColor=#666666;fontColor=#333333;" parent="1" vertex="1">
          <mxGeometry x="800" y="440" width="120" height="40" as="geometry" />
        </mxCell>
        <mxCell id="IONX78HS26AkxI54Z5os-47" style="edgeStyle=orthogonalEdgeStyle;rounded=0;orthogonalLoop=1;jettySize=auto;html=1;entryX=0.5;entryY=1;entryDx=0;entryDy=0;endArrow=open;endFill=0;exitX=0.5;exitY=0;exitDx=0;exitDy=0;" parent="1" source="IONX78HS26AkxI54Z5os-26" target="IONX78HS26AkxI54Z5os-29" edge="1">
          <mxGeometry relative="1" as="geometry" />
        </mxCell>
        <mxCell id="Vv6Tuv0iEYaA01Lypk54-10" value="attached to" style="edgeLabel;html=1;align=center;verticalAlign=bottom;resizable=0;points=[];labelPosition=center;verticalLabelPosition=top;fontStyle=2" parent="IONX78HS26AkxI54Z5os-47" vertex="1" connectable="0">
          <mxGeometry x="-0.2543" relative="1" as="geometry">
            <mxPoint x="3.1" as="offset" />
          </mxGeometry>
        </mxCell>
        <mxCell id="IONX78HS26AkxI54Z5os-26" value="Sensor" style="rounded=0;whiteSpace=wrap;html=1;fontStyle=2;fillColor=#f5f5f5;strokeColor=#666666;fontColor=#333333;" parent="1" vertex="1">
          <mxGeometry x="520" y="400" width="120" height="40" as="geometry" />
        </mxCell>
        <mxCell id="IONX78HS26AkxI54Z5os-49" style="edgeStyle=orthogonalEdgeStyle;rounded=0;orthogonalLoop=1;jettySize=auto;html=1;exitX=0.5;exitY=1;exitDx=0;exitDy=0;entryX=1;entryY=0.5;entryDx=0;entryDy=0;endArrow=open;endFill=0;" parent="1" source="IONX78HS26AkxI54Z5os-27" target="IONX78HS26AkxI54Z5os-15" edge="1">
          <mxGeometry relative="1" as="geometry">
            <Array as="points">
              <mxPoint x="580" y="520" />
              <mxPoint x="1000" y="520" />
              <mxPoint x="1000" y="100" />
            </Array>
          </mxGeometry>
        </mxCell>
        <mxCell id="Vv6Tuv0iEYaA01Lypk54-5" value="monitors" style="edgeLabel;html=1;align=center;verticalAlign=bottom;resizable=0;points=[];labelPosition=center;verticalLabelPosition=top;fontStyle=2" parent="IONX78HS26AkxI54Z5os-49" vertex="1" connectable="0">
          <mxGeometry x="0.9422" y="1" relative="1" as="geometry">
            <mxPoint x="12.41" y="-1" as="offset" />
          </mxGeometry>
        </mxCell>
        <mxCell id="IONX78HS26AkxI54Z5os-27" value="Ballot Button" style="rounded=0;whiteSpace=wrap;html=1;fontStyle=2;fillColor=#f5f5f5;strokeColor=#666666;fontColor=#333333;" parent="1" vertex="1">
          <mxGeometry x="520" y="440" width="120" height="40" as="geometry" />
        </mxCell>
        <mxCell id="IONX78HS26AkxI54Z5os-28" value="Device" style="rounded=0;whiteSpace=wrap;html=1;fontStyle=2;fillColor=#f5f5f5;strokeColor=#666666;fontColor=#333333;" parent="1" vertex="1">
          <mxGeometry x="660" y="280" width="120" height="40" as="geometry" />
        </mxCell>
        <mxCell id="IONX78HS26AkxI54Z5os-29" value="Ballot Button" style="rounded=0;whiteSpace=wrap;html=1;fontStyle=2;fillColor=#f5f5f5;strokeColor=#666666;fontColor=#333333;" parent="1" vertex="1">
          <mxGeometry x="660" y="320" width="120" height="40" as="geometry" />
        </mxCell>
      </root>
    </mxGraphModel>
  </diagram>
</mxfile>
